<svg width="29" height="37" viewBox="0 0 29 37" fill="none" xmlns="http://www.w3.org/2000/svg">
<path fill-rule="evenodd" clip-rule="evenodd" d="M2.15758 24.8637L2.15167 24.8717L2.14594 24.8798C1.82665 25.3319 1.1114 25.4647 0.552061 25.0697C0.104305 24.7534 -0.030295 24.0488 0.350983 23.4919C0.919869 22.7667 1.33302 21.9189 1.60438 21.0902C1.88689 20.2274 2.01828 19.2469 2.01316 18.2854C2.00804 17.3238 1.86621 16.3448 1.57454 15.4851C1.29436 14.6592 0.872207 13.8159 0.29563 13.0968C-0.0915573 12.544 0.035531 11.838 0.479894 11.517C1.035 11.116 1.75161 11.2412 2.07571 11.6899L2.08152 11.698L2.08752 11.7059C2.80515 12.6522 3.39376 13.7036 3.74551 14.7351C4.11576 15.9485 4.35161 17.1224 4.35773 18.2729C4.36418 19.4836 4.24848 20.6296 3.8042 21.7577C3.32033 22.9863 2.85176 23.9278 2.15758 24.8637ZM7.34629 27.1109L7.36031 27.0911L7.37319 27.0704C8.96375 24.5221 9.88117 21.447 9.86411 18.2436C9.84705 15.0409 8.89741 11.9765 7.28054 9.4456C6.93015 8.88995 7.08755 8.23297 7.67815 7.80635C8.0748 7.51982 8.81945 7.62127 9.26128 8.21338C11.0868 11.1097 12.1894 14.6109 12.2087 18.2311C12.2286 21.9749 11.1642 25.3624 9.36795 28.2799C8.95244 28.8518 8.31632 29.012 7.76777 28.6879C7.17309 28.2522 7.06438 27.5101 7.34629 27.1109ZM16.6573 4.40644L16.673 4.43738L16.6911 4.46696C19.1647 8.49978 20.5393 13.1515 20.5661 18.1866C20.5929 23.2193 19.2692 27.8834 16.8408 31.9411C16.4685 32.5397 15.84 32.7085 15.2028 32.4119C14.6228 32.0339 14.467 31.4076 14.7699 30.775C16.8352 27.1073 18.1194 22.7853 18.0949 18.1997C18.0706 13.6347 16.8769 9.31954 14.6318 5.65156C14.328 5.02526 14.4784 4.4015 15.0515 4.01922C15.7429 3.68894 16.4164 3.93102 16.6573 4.40644ZM23.9815 0.568482L23.9922 0.589622L24.0041 0.610134C27.0016 5.79156 28.7627 11.7154 28.7969 18.1427C28.8311 24.5634 27.1367 30.5001 24.2001 35.7093C23.8272 36.3011 23.2016 36.4668 22.5674 36.1716C21.9893 35.7949 21.8326 35.1713 22.1317 34.5407C24.9607 29.7124 26.4841 24.1186 26.4524 18.1552C26.4205 12.1765 24.7035 6.60432 21.9609 1.82368C21.6173 1.1258 21.8594 0.442305 22.3391 0.199263C23.0432 -0.157478 23.7364 0.0846841 23.9815 0.568482Z" fill="url(#paint0_linear_1730_3796)"/>
<defs>
<linearGradient id="paint0_linear_1730_3796" x1="14.3501" y1="0.0749533" x2="14.5434" y2="36.3604" gradientUnits="userSpaceOnUse">
<stop stop-color="white" stop-opacity="0.73"/>
<stop offset="1" stop-color="white"/>
</linearGradient>
</defs>
</svg>
