<svg width="76" height="25" viewBox="0 0 76 25" fill="none" xmlns="http://www.w3.org/2000/svg">
<path d="M26.9862 23.9011L30.8261 1.37395H36.9659L33.1248 23.9011H26.9862ZM55.2795 1.86814C53.5175 1.22988 51.6562 0.909604 49.7823 0.922235C43.7229 0.922235 39.4542 3.97378 39.4175 8.34818C39.3841 11.5813 42.4655 13.3846 44.7918 14.4603C47.1789 15.5637 47.9812 16.2671 47.9697 17.2521C47.9548 18.76 46.063 19.4485 44.301 19.4485C41.8461 19.4485 40.5426 19.1037 38.5278 18.2682L37.7383 17.9107L36.8774 22.9471C38.3095 23.5747 40.9587 24.1195 43.708 24.147C50.1546 24.147 54.3394 21.1311 54.3877 16.4602C54.4106 13.9006 52.7786 11.9525 49.2386 10.3468C47.0951 9.31244 45.7825 8.61133 45.7963 7.55739C45.7963 6.62297 46.9077 5.62309 49.3087 5.62309C50.8818 5.58788 52.445 5.88148 53.8981 6.4851L54.4474 6.74482L55.2795 1.86814ZM71.0531 1.37395H66.3293C64.8662 1.37395 63.7709 1.77394 63.1284 3.2336L54.0486 23.7861H60.5113C60.5113 23.7861 61.5458 21.053 61.7837 20.453L69.5268 20.4622C69.7073 21.2392 70.2624 23.7861 70.2624 23.7861H75.9999L71.0531 1.37395ZM63.5422 15.8557C64.049 14.5592 65.9857 9.56644 65.9857 9.56644C65.9489 9.6262 66.4891 8.26309 66.7983 7.41832L67.2131 9.35845C67.2131 9.35845 68.3878 14.7293 68.6326 15.8557H63.5422ZM21.7762 1.37395L15.7858 16.682L15.1479 13.5708C14.0331 9.98483 10.5586 6.10007 6.67383 4.15538L12.1516 23.7861L18.6247 23.7792L28.2573 1.37395H21.7463" fill="url(#paint0_linear_1730_3793)"/>
<path d="M9.92571 1.37374H0.0792979L0 1.8415C7.6937 3.70459 12.7841 8.20543 14.8977 13.6119L12.7473 3.26786C12.3761 1.84382 11.3003 1.41856 9.96825 1.36914" fill="url(#paint1_linear_1730_3793)"/>
<defs>
<linearGradient id="paint0_linear_1730_3793" x1="41.3369" y1="0.921875" x2="41.3369" y2="24.147" gradientUnits="userSpaceOnUse">
<stop stop-color="white"/>
<stop offset="1" stop-color="white" stop-opacity="0.75"/>
</linearGradient>
<linearGradient id="paint1_linear_1730_3793" x1="7.44887" y1="1.36914" x2="7.44887" y2="13.6119" gradientUnits="userSpaceOnUse">
<stop stop-color="white"/>
<stop offset="1" stop-color="white" stop-opacity="0.75"/>
</linearGradient>
</defs>
</svg>
